# xmcd
#
# Track frame offsets: 
#        150
#        12242
#        25022
#        35830
#        47141
#        58711
#        69120
#        79893
#        92193
#        104279
#        114713
#        127286
#        135914
#        147605
#        160141
#        173051
#        183768
#        193960
#        204567
#        216555
#        227430
#        239857
#        251503
#        262669
#        272732
#        284341
#        288029
#        298597
#        309945
#        320742
#
# Disc length: 4421 seconds
#
# Revision: 0
# Processed by: cddbd v1.5.2PL0 Copyright (c) Steve Scherf et al.
# Submitted via: ExactAudioCopy v1.0b3
#
DISCID=c611431e
DTITLE=Johnny Horton - The Singing Fisherman [Disc 1]
DYEAR=2014
DGENRE=Country
TTITLE0=Why In The Dickens Don't You Milk That Cow [1950]
TTITLE1=By My Side [1950]
TTITLE2=Candy Jones [2009]
TTITLE3=Chiggers [2014]
TTITLE4=Empty Promises [2014]
TTITLE5=I Wanna Know [2014]
TTITLE6=It's Easy As Sin [2014]
TTITLE7=When My Baby Cries [2014]
TTITLE8=Plaid And Calico [1951]
TTITLE9=Coal, Smoke, Valve Oil And Steam [1951]
TTITLE10=Done Rovin' [1951]
TTITLE11=Candy Jones [1951]
TTITLE12=Birds And Butterflies [1951]
TTITLE13=Happy Millionaire [1951]
TTITLE14=Mean, Mean Son Of A Gun [1951]
TTITLE15=Devilish Love Light [1951]
TTITLE16=In My Home In Shelby County [1952]
TTITLE17=Go And Wash Your Dirty Feet (Barefoot Boy Blues) [1952]
TTITLE18=Shadows On The Old Bayou [1952]
TTITLE19=Talk Gobbler Talk (Old Gobbler, The Hound Dog) [1952]
TTITLE20=Words [1952]
TTITLE21=Smokey Joe's Barbeque [1952]
TTITLE22=On The Banks Of The Beautiful Nile [1952]
TTITLE23=It's A Long Rocky Road [1952]
TTITLE24=Shotgun Boogie [1996]
TTITLE25=Devilish Love Light (Excerpt) [2014]
TTITLE26=Johnny Horton and Hillbilly Barton - Bawlin' Baby [1952]
TTITLE27=Johnny Horton and Hillbilly Barton - Somebody's Rockin' My Brok
TTITLE27=en Heart [1952]
TTITLE28=Betty Lorraine (Betty Lou) [1952]
TTITLE29=Rhythm In My Baby's Walk [1952]
EXTD=
EXTT0=
EXTT1=
EXTT2=
EXTT3=
EXTT4=
EXTT5=
EXTT6=
EXTT7=
EXTT8=
EXTT9=
EXTT10=
EXTT11=
EXTT12=
EXTT13=
EXTT14=
EXTT15=
EXTT16=
EXTT17=
EXTT18=
EXTT19=
EXTT20=
EXTT21=
EXTT22=
EXTT23=
EXTT24=
EXTT25=
EXTT26=
EXTT27=
EXTT28=
EXTT29=
PLAYORDER=
